<mxfile host="app.diagrams.net" agent="Mozilla/5.0 (Macintosh; Intel Mac OS X 10_15_7) AppleWebKit/537.36 (KHTML, like Gecko) Chrome/134.0.0.0 Safari/537.36" version="26.2.14">
  <diagram name="Page-1" id="BtbPCRgPrWzy0crtDdK-">
    <mxGraphModel dx="1186" dy="736" grid="1" gridSize="10" guides="1" tooltips="1" connect="1" arrows="1" fold="1" page="1" pageScale="1" pageWidth="827" pageHeight="1169" math="0" shadow="0">
      <root>
        <mxCell id="0" />
        <mxCell id="1" parent="0" />
        <mxCell id="90hi8uG0w9FxHpmAitEo-2" value="" style="endArrow=classic;html=1;rounded=0;" parent="1" source="6iKeF8XoxHfNSxwBO0dx-13" target="0RlzfBuL6oLaxBtVv_V1-6" edge="1">
          <mxGeometry width="50" height="50" relative="1" as="geometry">
            <mxPoint x="250" y="380" as="sourcePoint" />
            <mxPoint x="300" y="330" as="targetPoint" />
          </mxGeometry>
        </mxCell>
        <mxCell id="0RlzfBuL6oLaxBtVv_V1-1" value="Application Code" style="sketch=0;outlineConnect=0;fontColor=#232F3E;gradientColor=none;fillColor=#232F3D;strokeColor=none;dashed=0;verticalLabelPosition=bottom;verticalAlign=top;align=center;html=1;fontSize=12;fontStyle=0;aspect=fixed;pointerEvents=1;shape=mxgraph.aws4.git_repository;" parent="1" vertex="1">
          <mxGeometry x="354" y="656" width="60" height="78" as="geometry" />
        </mxCell>
        <mxCell id="0RlzfBuL6oLaxBtVv_V1-3" value="SkyHiGh" style="swimlane;whiteSpace=wrap;html=1;expand=1;collapsible=0;" parent="1" vertex="1">
          <mxGeometry x="290" y="240" width="200" height="400" as="geometry">
            <mxRectangle x="290" y="240" width="160" height="30" as="alternateBounds" />
          </mxGeometry>
        </mxCell>
        <mxCell id="0RlzfBuL6oLaxBtVv_V1-6" value="&lt;span style=&quot;background-color: rgb(255, 255, 255);&quot;&gt;skogkursbachelor/website&lt;/span&gt;" style="sketch=0;pointerEvents=1;shadow=0;dashed=0;html=1;strokeColor=none;fillColor=#505050;labelPosition=center;verticalLabelPosition=bottom;verticalAlign=top;outlineConnect=0;align=center;shape=mxgraph.office.concepts.website;" parent="0RlzfBuL6oLaxBtVv_V1-3" vertex="1">
          <mxGeometry x="70.5" y="70" width="59" height="49" as="geometry" />
        </mxCell>
        <mxCell id="6iKeF8XoxHfNSxwBO0dx-19" value="skogkursbachelor/server" style="shape=image;verticalLabelPosition=bottom;labelBackgroundColor=default;verticalAlign=top;aspect=fixed;imageAspect=0;image=https://www.svgrepo.com/show/88703/api.svg;" parent="0RlzfBuL6oLaxBtVv_V1-3" vertex="1">
          <mxGeometry x="62.5" y="240" width="75" height="75" as="geometry" />
        </mxCell>
        <mxCell id="90hi8uG0w9FxHpmAitEo-3" value="" style="endArrow=classic;startArrow=classic;html=1;rounded=0;" parent="0RlzfBuL6oLaxBtVv_V1-3" source="6iKeF8XoxHfNSxwBO0dx-19" target="0RlzfBuL6oLaxBtVv_V1-6" edge="1">
          <mxGeometry width="50" height="50" relative="1" as="geometry">
            <mxPoint x="79.5" y="210" as="sourcePoint" />
            <mxPoint x="129.5" y="160" as="targetPoint" />
          </mxGeometry>
        </mxCell>
        <mxCell id="6iKeF8XoxHfNSxwBO0dx-7" value="GitHub Actions" style="shape=image;verticalLabelPosition=bottom;labelBackgroundColor=default;verticalAlign=top;aspect=fixed;imageAspect=0;image=https://www.svgrepo.com/show/306098/githubactions.svg;" parent="1" vertex="1">
          <mxGeometry x="151" y="650" width="90" height="90" as="geometry" />
        </mxCell>
        <mxCell id="6iKeF8XoxHfNSxwBO0dx-15" value="Transport managers" style="swimlane;whiteSpace=wrap;html=1;expand=1;collapsible=0;" parent="1" vertex="1">
          <mxGeometry x="290.5" y="40" width="200" height="150" as="geometry" />
        </mxCell>
        <mxCell id="6iKeF8XoxHfNSxwBO0dx-13" value="" style="sketch=0;outlineConnect=0;fontColor=#232F3E;gradientColor=none;fillColor=#232F3D;strokeColor=none;dashed=0;verticalLabelPosition=bottom;verticalAlign=top;align=center;html=1;fontSize=12;fontStyle=0;aspect=fixed;pointerEvents=1;shape=mxgraph.aws4.client;" parent="6iKeF8XoxHfNSxwBO0dx-15" vertex="1">
          <mxGeometry x="65.62" y="50" width="68.76" height="67" as="geometry" />
        </mxCell>
        <mxCell id="6iKeF8XoxHfNSxwBO0dx-16" value="" style="endArrow=classic;html=1;rounded=0;" parent="1" source="0RlzfBuL6oLaxBtVv_V1-1" target="6iKeF8XoxHfNSxwBO0dx-7" edge="1">
          <mxGeometry width="50" height="50" relative="1" as="geometry">
            <mxPoint x="686" y="775" as="sourcePoint" />
            <mxPoint x="736" y="725" as="targetPoint" />
          </mxGeometry>
        </mxCell>
        <mxCell id="6iKeF8XoxHfNSxwBO0dx-17" value="On commit" style="edgeLabel;html=1;align=center;verticalAlign=middle;resizable=0;points=[];" parent="6iKeF8XoxHfNSxwBO0dx-16" vertex="1" connectable="0">
          <mxGeometry x="-0.48" y="-2" relative="1" as="geometry">
            <mxPoint as="offset" />
          </mxGeometry>
        </mxCell>
        <mxCell id="6iKeF8XoxHfNSxwBO0dx-27" value="External Providers" style="swimlane;whiteSpace=wrap;html=1;expand=1;collapsible=0;" parent="1" vertex="1">
          <mxGeometry x="530" y="240" width="200" height="400" as="geometry" />
        </mxCell>
        <mxCell id="6iKeF8XoxHfNSxwBO0dx-26" value="OpenLayers" style="shape=image;verticalLabelPosition=bottom;labelBackgroundColor=default;verticalAlign=top;aspect=fixed;imageAspect=0;image=https://www.svgrepo.com/show/306511/openlayers.svg;" parent="6iKeF8XoxHfNSxwBO0dx-27" vertex="1">
          <mxGeometry x="65" y="30" width="70" height="70" as="geometry" />
        </mxCell>
        <mxCell id="6iKeF8XoxHfNSxwBO0dx-18" value="External APIs" style="shape=image;verticalLabelPosition=bottom;labelBackgroundColor=default;verticalAlign=top;aspect=fixed;imageAspect=0;image=https://cdn-icons-png.flaticon.com/512/1554/1554121.png;" parent="6iKeF8XoxHfNSxwBO0dx-27" vertex="1">
          <mxGeometry x="60" y="130" width="80" height="80" as="geometry" />
        </mxCell>
        <mxCell id="6DhEAvd5gJPquxKEEZNW-1" value="" style="shape=image;verticalLabelPosition=bottom;labelBackgroundColor=default;verticalAlign=top;aspect=fixed;imageAspect=0;image=https://www.svgrepo.com/show/399319/wms.svg;" parent="6iKeF8XoxHfNSxwBO0dx-27" vertex="1">
          <mxGeometry x="60" y="235" width="80" height="80" as="geometry" />
        </mxCell>
        <mxCell id="6DhEAvd5gJPquxKEEZNW-2" value="" style="shape=image;verticalLabelPosition=bottom;labelBackgroundColor=default;verticalAlign=top;aspect=fixed;imageAspect=0;image=https://www.svgrepo.com/show/399315/wfs.svg;" parent="6iKeF8XoxHfNSxwBO0dx-27" vertex="1">
          <mxGeometry x="60" y="315" width="80" height="80" as="geometry" />
        </mxCell>
        <mxCell id="6iKeF8XoxHfNSxwBO0dx-29" value="" style="endArrow=classic;startArrow=classic;html=1;rounded=0;" parent="1" source="6iKeF8XoxHfNSxwBO0dx-19" target="6iKeF8XoxHfNSxwBO0dx-18" edge="1">
          <mxGeometry width="50" height="50" relative="1" as="geometry">
            <mxPoint x="450" y="595" as="sourcePoint" />
            <mxPoint x="500" y="545" as="targetPoint" />
          </mxGeometry>
        </mxCell>
        <mxCell id="6iKeF8XoxHfNSxwBO0dx-30" value="" style="endArrow=classic;startArrow=classic;html=1;rounded=0;" parent="1" source="6iKeF8XoxHfNSxwBO0dx-19" target="6iKeF8XoxHfNSxwBO0dx-26" edge="1">
          <mxGeometry width="50" height="50" relative="1" as="geometry">
            <mxPoint x="580" y="505" as="sourcePoint" />
            <mxPoint x="630" y="455" as="targetPoint" />
          </mxGeometry>
        </mxCell>
        <mxCell id="idLAQDSfNtUFx_-nqvb9-10" style="edgeStyle=orthogonalEdgeStyle;rounded=0;orthogonalLoop=1;jettySize=auto;html=1;" parent="1" source="idLAQDSfNtUFx_-nqvb9-4" target="idLAQDSfNtUFx_-nqvb9-5" edge="1">
          <mxGeometry relative="1" as="geometry" />
        </mxCell>
        <mxCell id="idLAQDSfNtUFx_-nqvb9-4" value="Build Docker Image&lt;div&gt;Push Image to registry&lt;/div&gt;" style="shape=process;whiteSpace=wrap;html=1;backgroundOutline=1;" parent="1" vertex="1">
          <mxGeometry x="114" y="520" width="164" height="55" as="geometry" />
        </mxCell>
        <mxCell id="idLAQDSfNtUFx_-nqvb9-5" value="Registry" style="sketch=0;outlineConnect=0;fontColor=#232F3E;gradientColor=none;strokeColor=#232F3E;fillColor=#ffffff;dashed=0;verticalLabelPosition=bottom;verticalAlign=top;align=center;html=1;fontSize=12;fontStyle=0;aspect=fixed;shape=mxgraph.aws4.resourceIcon;resIcon=mxgraph.aws4.registry;" parent="1" vertex="1">
          <mxGeometry x="166" y="390" width="60" height="60" as="geometry" />
        </mxCell>
        <mxCell id="idLAQDSfNtUFx_-nqvb9-9" value="" style="endArrow=none;html=1;rounded=0;" parent="1" source="6iKeF8XoxHfNSxwBO0dx-7" target="idLAQDSfNtUFx_-nqvb9-4" edge="1">
          <mxGeometry width="50" height="50" relative="1" as="geometry">
            <mxPoint x="136" y="590" as="sourcePoint" />
            <mxPoint x="186" y="540" as="targetPoint" />
          </mxGeometry>
        </mxCell>
        <mxCell id="6DhEAvd5gJPquxKEEZNW-5" value="" style="endArrow=classic;startArrow=classic;html=1;rounded=0;" parent="1" source="6iKeF8XoxHfNSxwBO0dx-19" target="6DhEAvd5gJPquxKEEZNW-1" edge="1">
          <mxGeometry width="50" height="50" relative="1" as="geometry">
            <mxPoint x="547" y="579" as="sourcePoint" />
            <mxPoint x="680" y="480" as="targetPoint" />
          </mxGeometry>
        </mxCell>
        <mxCell id="6DhEAvd5gJPquxKEEZNW-6" value="" style="endArrow=classic;startArrow=classic;html=1;rounded=0;" parent="1" source="6iKeF8XoxHfNSxwBO0dx-19" target="6DhEAvd5gJPquxKEEZNW-2" edge="1">
          <mxGeometry width="50" height="50" relative="1" as="geometry">
            <mxPoint x="547" y="601" as="sourcePoint" />
            <mxPoint x="680" y="577" as="targetPoint" />
          </mxGeometry>
        </mxCell>
        <mxCell id="90hi8uG0w9FxHpmAitEo-4" value="" style="endArrow=none;dashed=1;html=1;dashPattern=1 3;strokeWidth=2;rounded=0;" parent="1" source="idLAQDSfNtUFx_-nqvb9-5" target="0RlzfBuL6oLaxBtVv_V1-6" edge="1">
          <mxGeometry width="50" height="50" relative="1" as="geometry">
            <mxPoint x="310" y="480" as="sourcePoint" />
            <mxPoint x="360" y="430" as="targetPoint" />
          </mxGeometry>
        </mxCell>
        <mxCell id="90hi8uG0w9FxHpmAitEo-5" value="" style="endArrow=none;dashed=1;html=1;dashPattern=1 3;strokeWidth=2;rounded=0;" parent="1" source="idLAQDSfNtUFx_-nqvb9-5" target="6iKeF8XoxHfNSxwBO0dx-19" edge="1">
          <mxGeometry width="50" height="50" relative="1" as="geometry">
            <mxPoint x="310" y="480" as="sourcePoint" />
            <mxPoint x="360" y="430" as="targetPoint" />
          </mxGeometry>
        </mxCell>
      </root>
    </mxGraphModel>
  </diagram>
</mxfile>
